# xmcd
#
# Track frame offsets:
#	150
#	24651
#	47594
#	60348
#	81199
#	100681
#	116516
#	135758
#	154353
#	172447
#	187476
#	204594
#	218033
#	231557
#	256611
#	267430
#	283882
#	304439
#
# Disc length: 4301 seconds
#
# Revision: 0
# Processed by: cddbd v1.5.2PL0 Copyright (c) Steve Scherf et al.
# Submitted via: audiograbber 1.83.01
#
DISCID=0f10cb12
DTITLE=BBC Audio (Dr Who) - The Hornets Nest 3 - The Circus Of Doom
DYEAR=2009
DGENRE=Speech
TTITLE0=The Circus Of Doom
TTITLE1=The Circus Of Doom
TTITLE2=The Circus Of Doom
TTITLE3=The Circus Of Doom
TTITLE4=The Circus Of Doom
TTITLE5=The Circus Of Doom
TTITLE6=The Circus Of Doom
TTITLE7=The Circus Of Doom
TTITLE8=The Circus Of Doom
TTITLE9=The Circus Of Doom
TTITLE10=The Circus Of Doom
TTITLE11=The Circus Of Doom
TTITLE12=The Circus Of Doom
TTITLE13=The Circus Of Doom
TTITLE14=The Circus Of Doom
TTITLE15=The Circus Of Doom
TTITLE16=The Circus Of Doom
TTITLE17=The Circus Of Doom
EXTD=
EXTT0=
EXTT1=
EXTT2=
EXTT3=
EXTT4=
EXTT5=
EXTT6=
EXTT7=
EXTT8=
EXTT9=
EXTT10=
EXTT11=
EXTT12=
EXTT13=
EXTT14=
EXTT15=
EXTT16=
EXTT17=
PLAYORDER=
